<svg xmlns="http://www.w3.org/2000/svg" viewBox="0 0 17.39 12.59"><defs><style>.cls-1{fill:#346aea;}.cls-1,.cls-2,.cls-3{fill-rule:evenodd;}.cls-2{fill:#001849;}.cls-3{fill:#20e545;}</style></defs><g id="Layer_2" data-name="Layer 2"><g id="Layer_1-2" data-name="Layer 1"><path class="cls-1" d="M7.25.89A1.72,1.72,0,0,0,5.53,2.61a1.67,1.67,0,0,0,.29,1,5.21,5.21,0,0,1,2.11.63A1.74,1.74,0,0,0,9,2.61,1.72,1.72,0,0,0,7.25.89ZM6.73,2A1,1,0,0,1,7,1.9a.73.73,0,0,1,.3-.06.68.68,0,0,1,.29.06.72.72,0,0,1,.25.16h0A1,1,0,0,1,8,2.31a.8.8,0,0,1,.06.3.73.73,0,0,1-.06.3.57.57,0,0,1-.13.21l0,0a.9.9,0,0,1-.26.17h0a.68.68,0,0,1-.29.06A.73.73,0,0,1,7,3.33a.85.85,0,0,1-.25-.17.76.76,0,0,1-.22-.55,1,1,0,0,1,0-.3h0a.76.76,0,0,1,.16-.25Z"/><path class="cls-1" d="M11.21,1.2c.37-.35,1.13-.15,1.7.45a1.64,1.64,0,0,1,.52,1.43,1.23,1.23,0,0,0,.24.41c.1.12.21.25.33.37a1.76,1.76,0,0,1-.29.4,3.6,3.6,0,0,0-.3-.34,1.46,1.46,0,0,0-.5-.38,1.71,1.71,0,0,1-1.35-.62c-.57-.6-.72-1.37-.35-1.72Zm3.16,3a18.29,18.29,0,0,1,2.13,2c.27.42-.07,1.06-.44.82A21,21,0,0,1,14.2,4.78C14.25,4.59,14.3,4.4,14.37,4.21Z"/><path class="cls-2" d="M4.65,9.48H6.13l-.22-.1a3.58,3.58,0,0,1-1.47-1C1.79,4.94,6.06,5,8.32,5.8c2.82.91,4.07,1.71,6.82-1.94.37-.32,1-.08,1.32-.41a2.33,2.33,0,0,0,.93-1.52,8.12,8.12,0,0,1-1.18,1.25l-.06,0-.07,0H16l-.07,0-.71-.46h0s0,0,0,0a.05.05,0,0,1,0,0,.11.11,0,0,1,0,0,.13.13,0,0,1,.05-.06h0L16.87,1h0A.22.22,0,0,0,16.92,1c-.48,0-1.45.92-1.88,1.32l-.28.25c-.29.31.24.64-.1,1-.85.9-2.22,2-3.59,1.89C8.27,5.55,5.86,2.13,3.9,5l-.41.6L3.14,4.29a1.34,1.34,0,0,0-.09-.24h0l-.13-.23h0l-.14-.18h0c0-.06-.11-.11-.16-.16h0l0,0,0,0h0A4.31,4.31,0,0,0,0,3c2.3.42,2.43,2.7,3.11,5.26a1.57,1.57,0,0,0,.09.23h0a1.71,1.71,0,0,0,.13.23h0a1.25,1.25,0,0,0,.15.19l.15.15h0l0,0,.22.15h0l.24.11.25.07.25,0ZM15.9,2.78c2-1.67,1.91-1.63.24.27a.17.17,0,0,1-.12,0h0A.23.23,0,0,1,15.9,3h0a.14.14,0,0,1-.05-.13h0a.18.18,0,0,1,.05-.12Zm-.43-.28c2.08-1.68,2.39-1.9.24.27h0a.17.17,0,0,1-.12,0,.16.16,0,0,1-.12-.06h0a.15.15,0,0,1-.05-.12h0A.21.21,0,0,1,15.47,2.5Z"/><path class="cls-1" d="M5.75,9.72a1.44,1.44,0,1,1-1.44,1.43A1.43,1.43,0,0,1,5.75,9.72Zm.42.95A.42.42,0,0,0,6,10.56a.6.6,0,0,0-.24-.05.66.66,0,0,0-.25.05.6.6,0,0,0-.21.14h0a.6.6,0,0,0-.14.21.66.66,0,0,0-.05.25.64.64,0,0,0,.05.24.54.54,0,0,0,.11.18l0,0a.6.6,0,0,0,.21.14h0a.7.7,0,0,0,.25.05A.64.64,0,0,0,6,11.75a.6.6,0,0,0,.21-.14.64.64,0,0,0,.19-.45.66.66,0,0,0,0-.25h0a.6.6,0,0,0-.14-.21Z"/><path class="cls-1" d="M8.88,9.71a1.44,1.44,0,1,1-1.43,1.44A1.43,1.43,0,0,1,8.88,9.71Zm.43.95a.78.78,0,0,0-.18-.11.64.64,0,0,0-.24-.05.66.66,0,0,0-.25.05.6.6,0,0,0-.21.14h0a.6.6,0,0,0-.14.21.66.66,0,0,0,0,.25.64.64,0,0,0,0,.24.54.54,0,0,0,.11.18l0,0a.6.6,0,0,0,.21.14h0a.64.64,0,0,0,.24,0,.66.66,0,0,0,.25,0,.6.6,0,0,0,.21-.14.64.64,0,0,0,.19-.45.66.66,0,0,0,0-.25h0a.6.6,0,0,0-.14-.21Z"/><path class="cls-3" d="M4.37,6.22l4.56,0a.38.38,0,0,1,.28.12h0a.42.42,0,0,1,.11.29h0A.41.41,0,0,1,9.2,7a.38.38,0,0,1-.27.12h0l-4.56,0h0a.4.4,0,0,1-.28-.12A.44.44,0,0,1,4,6.64H4a.44.44,0,0,1,.11-.29h0a.4.4,0,0,1,.28-.12Z"/><path class="cls-1" d="M5.08,7.38H9.15a.41.41,0,0,1,.29.12h0a.47.47,0,0,1,.12.3h0a.38.38,0,0,1-.12.29h0a.38.38,0,0,1-.29.13H5.08a.41.41,0,0,1-.29-.13h0a.43.43,0,0,1-.12-.29h0a.47.47,0,0,1,.12-.3A.45.45,0,0,1,5.08,7.38Z"/><path class="cls-1" d="M9,8.67l-1.87,0H5.53c.9,1,2.17.78,3.51.78,1.09,0,1.43-.83,1.69-1.64.09-.28.24-.72.3-1C10.07,7,9.86,8.67,9,8.67Z"/><path class="cls-1" d="M5.83,1.81c0-.06-.89-1.39-.89-1.39S9.07,0,9.07,0s-.44,1.08-.44,1.08l1,.36-.1.27Z"/><path class="cls-3" d="M7.13,3.51a1.06,1.06,0,0,0,1.13-1,1.06,1.06,0,0,0-1.13-1A1.05,1.05,0,0,0,6,2.55,1.05,1.05,0,0,0,7.13,3.51Z"/></g></g></svg>