<svg xmlns="http://www.w3.org/2000/svg" viewBox="0 0 721.29 234.85"><defs><style>.cls-1,.cls-4{fill:#438cca;}.cls-2{fill:#231f20;stroke:#fff;stroke-miterlimit:10;stroke-width:10px;}.cls-3,.cls-4{font-size:146.16px;font-family:Copperplate-Bold, Copperplate;font-weight:700;}.cls-3{fill:#fff;}</style></defs><g id="Layer_2" data-name="Layer 2"><g id="Layer_1-2" data-name="Layer 1"><circle class="cls-1" cx="112.36" cy="122.49" r="112.36"/><circle class="cls-2" cx="288.86" cy="117.36" r="112.36"/><text class="cls-3" transform="translate(41.41 165.39)">M</text><path class="cls-1" d="M285.52,192.11l1.67-32a3.52,3.52,0,0,0-3.36-3.68,3.28,3.28,0,0,0-.76.05l-31.86,5.6,4.3-11.87a2.41,2.41,0,0,0-.74-2.71l-34.91-28.27,7.87-3.67a2.41,2.41,0,0,0,1.26-2.93l-6.9-21.22,20.1,4.27a2.42,2.42,0,0,0,2.71-1.41l3.9-9.17,15.69,16.84a2.41,2.41,0,0,0,4.12-2.11l-7.57-39,12.13,7a2.42,2.42,0,0,0,3.3-.87s0-.09.08-.14l12.31-24.18,12.32,24.18a2.4,2.4,0,0,0,3.23,1.08l.14-.07,12.13-7-7.56,39a2.4,2.4,0,0,0,1.91,2.82,2.38,2.38,0,0,0,2.2-.71l15.7-16.84,3.89,9.17a2.42,2.42,0,0,0,2.71,1.41l20.11-4.27-6.9,21.22a2.41,2.41,0,0,0,1.26,2.93l7.86,3.67L323,147.48a2.41,2.41,0,0,0-.74,2.71l4.31,11.87-31.87-5.6a3.52,3.52,0,0,0-4.07,2.87,3.89,3.89,0,0,0-.05.76l1.67,32Z"/><text class="cls-4" transform="translate(428.82 165.39)">PLE</text></g></g></svg>