<svg xmlns="http://www.w3.org/2000/svg" xmlns:xlink="http://www.w3.org/1999/xlink" width="48.435" height="51.747" viewBox="0 0 48.435 51.747">
  <defs>
    <linearGradient id="linear-gradient" x1="-0.55" y1="3.011" x2="0.686" y2="0.411" gradientUnits="objectBoundingBox">
      <stop offset="0" stop-color="#5c1cb2"/>
      <stop offset="0.173" stop-color="#5c59cd"/>
      <stop offset="0.346" stop-color="#5c90e6"/>
      <stop offset="0.476" stop-color="#5cb2f6"/>
      <stop offset="0.546" stop-color="#5cbffc"/>
      <stop offset="0.991" stop-color="#ff00c1"/>
    </linearGradient>
  </defs>
  <g id="Group_1" data-name="Group 1" transform="translate(0.477 0.265)">
    <path id="Path_1" data-name="Path 1" d="M636.563,666.342c12.269-.184,10.845,11.338,10.845,11.338l-3.764-.037c1.477-10.472-7.51-10.465-8.045-10.487-2.148-.09-5.342,2.248-4.967,10.36l-3.769-.037S627.914,666.472,636.563,666.342Z" transform="translate(-610.477 -666.117)" fill="#edf5f0"/>
    <path id="Path_2" data-name="Path 2" d="M636.079,666.328c10.251.1,9,11.529,9,11.529l-3.765-.037c1.481-10.473-5.179-10.705-5.719-10.664-.8.06-5.963.008-7.3,10.537l-3.036-.093S625.822,666.224,636.079,666.328Z" transform="translate(-610.477 -666.105)" fill="url(#linear-gradient)"/>
    <path id="Path_3" data-name="Path 3" d="M636.079,666.328c10.251.1,9,11.529,9,11.529l-3.765-.037c1.481-10.473-5.179-10.705-5.719-10.664-.8.06-5.963.008-7.3,10.537l-3.036-.093S625.822,666.224,636.079,666.328Z" transform="translate(-610.477 -666.105)" fill="#73a400"/>
    <path id="Path_4" data-name="Path 4" d="M631.138,689.6c3.87-.3,6.968,3.493,6.944,8.505-.024,5.043-3.2,9.455-7.113,9.828-3.945.376-7.108-3.488-7.038-8.6C624,694.249,627.239,689.905,631.138,689.6Z" transform="translate(-610.477 -667.265)" fill="#73a400"/>
    <path id="Path_5" data-name="Path 5" d="M616.932,716.57l29.748,2.17c2.048.151,9.319-3.489,9.319-3.489,1.631-.786-2.092-35.275-2.547-36.569a16.2,16.2,0,0,0-2.274-1.947l-.613.005-29.912.31a2.433,2.433,0,0,0-2.521,1.6l-5.4,33.687C612.154,715.914,614.085,716.255,616.932,716.57Zm4.115-16.744c-.036-6.593,4.385-12.4,9.861-13s9.958,4.2,10.056,10.752c.1,6.6-4.288,12.489-9.812,13.128S621.084,706.461,621.047,699.826Z" transform="translate(-610.477 -667.265)" fill="#73a400"/>
    <path id="Path_6" data-name="Path 6" d="M656.576,715.777c-6.017,2.5-6.736,2.946-8.815,2.969a22.854,22.854,0,0,1-2.73-.129c3.14-.838,3.941-2.736,4.223-5.608.408-4.132.586-9.04.632-13.817.067-7.067-.158-13.851-.369-17.41-.249-4.209,1.047-5.043,1.661-5.047,0,0,1.546-.346,2.274,1.946.4,1.248,3.5,21.4,4.725,30.695.055.415.1.809.151,1.178C658.662,713.208,658.252,715.081,656.576,715.777Z" transform="translate(-610.477 -667.265)" fill="#73a400"/>
    <path id="Path_7" data-name="Path 7" d="M656.576,715.777c-6.017,2.5-6.736,2.946-8.815,2.969a22.854,22.854,0,0,1-2.73-.129c3.14-.838,3.941-2.736,4.223-5.608.408-4.132.586-9.04.632-13.817.481.041.99.1,1.53.186,4.809.744,6.332,7.28,6.761,10,.114.724.151,1.178.151,1.178C658.662,713.208,658.252,715.081,656.576,715.777Z" transform="translate(-610.477 -667.265)" fill="#f9fcf5"/>
    <path id="Path_8" data-name="Path 8" d="M640.593,684.916c-.144,1.567.816,2.76,2.144,2.663a3.235,3.235,0,0,0,2.661-3.014c.142-1.565-.818-2.755-2.144-2.658A3.234,3.234,0,0,0,640.593,684.916Z" transform="translate(-610.477 -667.265)" fill="#00191f"/>
  </g>
</svg>
