<svg xmlns="http://www.w3.org/2000/svg" viewBox="0 0 2360.52 888.11"><defs><style>.cls-1{fill:#3f6fb6;}.cls-2{fill:#fff;opacity:0.19;}</style></defs><g id="Layer_2" data-name="Layer 2"><g id="Layer_1-2" data-name="Layer 1"><rect class="cls-1" width="2360.52" height="888.11"/><path class="cls-2" d="M267.49,308.83l2.71-41.39c.15-2.52-2.29-4.65-5.45-4.77a8.45,8.45,0,0,0-1.23.06L211.81,270l7-15.35a2.74,2.74,0,0,0-1.2-3.5l-56.65-36.56,12.76-4.75c1.78-.67,2.66-2.29,2.05-3.78l-11.2-27.44,32.63,5.51a4.2,4.2,0,0,0,4.39-1.82l6.32-11.85,25.47,21.78a4.65,4.65,0,0,0,5.53.12,2.75,2.75,0,0,0,1.15-2.85L227.76,139l19.69,9.07A4.51,4.51,0,0,0,252.8,147l.12-.19,20-31.27,20,31.27a4.42,4.42,0,0,0,5.25,1.4l.22-.1L318.06,139l-12.28,50.47c-.41,1.69,1,3.32,3.1,3.65a4.58,4.58,0,0,0,3.58-.92l25.47-21.78,6.32,11.85a4.2,4.2,0,0,0,4.39,1.82l32.63-5.51L370.07,206c-.61,1.49.27,3.11,2.05,3.78l12.76,4.75-56.65,36.56a2.74,2.74,0,0,0-1.2,3.5L334,270l-51.71-7.25c-3.11-.42-6.07,1.24-6.6,3.72a3.68,3.68,0,0,0-.08,1l2.71,41.39Z"/><path class="cls-2" d="M2135,212.18l.82-12.6a1.78,1.78,0,0,0-2-1.43l-15.74,2.2,2.13-4.67a.85.85,0,0,0-.37-1.07l-17.24-11.12,3.88-1.45a.89.89,0,0,0,.63-1.15l-3.41-8.35,9.93,1.68a1.29,1.29,0,0,0,1.34-.56l1.92-3.6,7.75,6.63a1.41,1.41,0,0,0,1.68,0,.82.82,0,0,0,.35-.87l-3.73-15.36,6,2.76a1.37,1.37,0,0,0,1.63-.33l0-.06,6.09-9.52,6.08,9.52a1.34,1.34,0,0,0,1.6.42l.07,0,6-2.76-3.74,15.36a1,1,0,0,0,.95,1.11,1.35,1.35,0,0,0,1.08-.27l7.75-6.63,1.93,3.6a1.28,1.28,0,0,0,1.34.56l9.93-1.68-3.41,8.35a.89.89,0,0,0,.62,1.15l3.89,1.45-17.24,11.12a.84.84,0,0,0-.37,1.07l2.12,4.67-15.73-2.2a1.73,1.73,0,0,0-2,1.13,1,1,0,0,0,0,.3l.83,12.6Z"/><path class="cls-2" d="M237.18,710.64,238,698a1.57,1.57,0,0,0-1.66-1.45l-.38,0-15.73,2.21,2.12-4.67a.83.83,0,0,0-.37-1.07L204.75,682l3.89-1.44a.89.89,0,0,0,.62-1.15L205.85,671l9.93,1.67a1.27,1.27,0,0,0,1.34-.55l1.92-3.61,7.75,6.63a1.43,1.43,0,0,0,1.69,0,.87.87,0,0,0,.35-.87L225.09,659l6,2.76a1.37,1.37,0,0,0,1.63-.34l0,0,6.08-9.52,6.08,9.52a1.34,1.34,0,0,0,1.6.42l.07,0,6-2.76-3.73,15.36c-.13.51.29,1,.94,1.11a1.38,1.38,0,0,0,1.09-.28l7.75-6.63,1.92,3.61a1.29,1.29,0,0,0,1.34.55l9.93-1.67-3.41,8.35a.89.89,0,0,0,.63,1.15l3.88,1.44-17.24,11.13a.84.84,0,0,0-.37,1.07l2.13,4.67-15.74-2.21a1.74,1.74,0,0,0-2,1.13,1,1,0,0,0,0,.3l.82,12.6Z"/><path class="cls-2" d="M2142.85,748.46l2.71-41.39c.15-2.52-2.29-4.65-5.45-4.76a6.34,6.34,0,0,0-1.23.06l-51.71,7.24,7-15.35a2.74,2.74,0,0,0-1.2-3.5l-56.65-36.55,12.76-4.75c1.78-.67,2.66-2.3,2.05-3.79l-11.2-27.44,32.63,5.52a4.2,4.2,0,0,0,4.39-1.83l6.32-11.84,25.47,21.77a4.64,4.64,0,0,0,5.53.12,2.75,2.75,0,0,0,1.15-2.85l-12.28-50.46,19.69,9.06a4.51,4.51,0,0,0,5.35-1.11,1.88,1.88,0,0,0,.12-.18l20-31.28,20,31.28a4.42,4.42,0,0,0,5.25,1.39l.23-.1,19.68-9.06-12.28,50.46c-.41,1.69,1,3.32,3.1,3.65a4.58,4.58,0,0,0,3.58-.92l25.47-21.77,6.32,11.84a4.2,4.2,0,0,0,4.39,1.83l32.63-5.52-11.2,27.44c-.61,1.49.27,3.12,2.05,3.79l12.76,4.75-56.65,36.55a2.74,2.74,0,0,0-1.2,3.5l7,15.35-51.71-7.24c-3.11-.43-6.07,1.24-6.6,3.72a3.58,3.58,0,0,0-.08,1l2.71,41.39Z"/></g></g></svg>